<?xml version="1.0" standalone="no"?>
<!DOCTYPE svg PUBLIC "-//W3C//DTD SVG 20010904//EN"
 "http://www.w3.org/TR/2001/REC-SVG-20010904/DTD/svg10.dtd">
<svg version="1.0" xmlns="http://www.w3.org/2000/svg"
 width="512.000000pt" height="512.000000pt" viewBox="0 0 512.000000 512.000000"
 preserveAspectRatio="xMidYMid meet">
<metadata>
Created by potrace 1.14, written by Peter Selinger 2001-2017
</metadata>
<g transform="translate(0.000000,512.000000) scale(0.100000,-0.100000)"
fill="#000000" stroke="none">
<path d="M2076 4438 c-54 -12 -126 -54 -159 -93 -15 -18 -89 -140 -165 -272
-76 -131 -214 -368 -306 -528 -93 -159 -180 -310 -194 -335 -14 -25 -98 -171
-187 -325 -90 -154 -172 -296 -182 -315 -11 -19 -53 -91 -93 -160 -40 -69 -84
-144 -97 -167 -12 -23 -52 -92 -88 -153 -36 -61 -65 -115 -65 -121 0 -5 -4 -9
-10 -9 -5 0 -10 -4 -10 -9 0 -5 -110 -199 -245 -431 -134 -232 -252 -445 -261
-472 -44 -134 31 -300 165 -362 l46 -21 2330 0 2330 0 45 21 c99 46 168 145
177 254 8 93 8 93 -217 485 -10 17 -73 127 -142 245 -69 118 -136 235 -150
260 -14 25 -106 185 -205 355 -99 171 -321 553 -492 850 -172 297 -325 556
-340 575 -91 114 -277 142 -397 60 -59 -41 -79 -68 -168 -225 l-79 -138 -15
29 c-8 16 -54 97 -102 179 -48 83 -97 166 -108 186 -41 74 -47 84 -58 99 -7 8
-25 40 -41 70 -81 151 -208 359 -236 388 -67 69 -182 102 -281 80z m306 -708
c129 -223 258 -447 288 -498 29 -51 57 -95 61 -98 18 -11 7 -34 -75 -175 -71
-123 -866 -1497 -916 -1584 -9 -16 -41 -72 -71 -123 -88 -152 -108 -195 -115
-243 l-6 -47 -619 1 c-341 0 -619 2 -619 5 0 3 19 37 41 76 23 39 50 87 61
106 56 97 819 1419 893 1545 80 138 195 336 218 375 22 40 177 307 280 485 38
66 78 136 89 155 171 299 249 432 253 428 2 -2 108 -185 237 -408z m1043 -377
c50 -86 103 -180 119 -207 15 -28 59 -103 96 -166 37 -63 147 -254 245 -425
98 -170 195 -338 217 -372 21 -34 38 -64 38 -67 0 -2 43 -77 95 -166 52 -89
95 -163 95 -165 0 -1 32 -55 70 -119 39 -65 70 -119 70 -121 0 -2 74 -130 164
-286 91 -156 163 -286 161 -289 -3 -4 -118 -7 -257 -6 l-252 1 -3 35 c-5 45
-35 111 -108 235 -32 55 -65 114 -75 130 -9 17 -51 89 -93 162 -42 72 -85 147
-96 165 -35 63 -389 674 -603 1043 l-215 370 21 39 c12 21 26 46 31 55 6 9 48
82 95 164 46 81 87 147 90 147 3 0 46 -71 95 -157z m-484 -590 c12 -21 32 -54
42 -73 11 -19 75 -129 142 -245 136 -235 639 -1103 665 -1150 9 -16 43 -75 75
-130 32 -55 67 -115 77 -134 10 -19 22 -39 28 -45 5 -5 10 -13 10 -17 0 -3
-479 -6 -1064 -6 l-1064 0 64 111 c35 61 68 118 74 126 5 8 37 64 72 124 35
60 75 130 90 155 15 25 33 57 41 71 7 14 65 115 129 225 63 110 126 219 139
242 75 131 454 783 455 783 1 0 12 -17 25 -37z"/>
</g>
</svg>
